<?xml version="1.0" encoding="utf-8"?>
<!-- Generator: Adobe Illustrator 24.3.0, SVG Export Plug-In . SVG Version: 6.00 Build 0)  -->
<svg version="1.1" id="Capa_1" xmlns="http://www.w3.org/2000/svg" xmlns:xlink="http://www.w3.org/1999/xlink" x="0px" y="0px"
	 viewBox="0 0 512 512" style="enable-background:new 0 0 512 512;" xml:space="preserve">
<style type="text/css">
	.st0{fill:#27379D;}
</style>
<g>
	<g>
		<g>
			<path class="st0" d="M105,182h120c8.3,0,15-6.7,15-15s-6.7-15-15-15H105c-8.3,0-15,6.7-15,15S96.7,182,105,182z M75,242h180
				c8.3,0,15-6.7,15-15s-6.7-15-15-15H75c-8.3,0-15,6.7-15,15S66.7,242,75,242z M75,362h90c8.3,0,15-6.7,15-15s-6.7-15-15-15H75
				c-8.3,0-15,6.7-15,15S66.7,362,75,362z M75,302h150c8.3,0,15-6.7,15-15s-6.7-15-15-15H75c-8.3,0-15,6.7-15,15S66.7,302,75,302z
				 M467,150c-12.2,0-23.6,4.8-32.2,13.5L330,268.4V15c0-8.3-6.7-15-15-15H105c-4,0-7.8,1.6-10.6,4.4l-90,90C1.7,97.1,0,101,0,105
				v392c0,8.3,6.7,15,15,15h300c8.3,0,15-6.7,15-15V395.6l168.4-168.4c8.8-8.5,13.6-20,13.6-32.2C512,170.2,491.8,150,467,150z
				 M90,51.2V90H51.2L90,51.2z M300,482H30V120h75c8.3,0,15-6.7,15-15V30h180v268.4L244.4,354c-18.6,18.6-30.2,42.3-33.4,68h-69.7
				l-25.6-25.6c-5.9-5.9-15.4-5.9-21.2,0l-30,30c-5.9,5.9-5.9,15.4,0,21.2c5.9,5.9,15.4,5.9,21.2,0l19.4-19.4l19.4,19.4
				c2.8,2.8,6.6,4.4,10.6,4.4h90c27.7,0,54-9.5,75-27.1V482z M286.8,396.4c-12.5,12.5-28.2,20.8-45.3,24c3.2-17,11.5-32.7,24-45.3
				c8.8-8.8,77.6-77.6,88.2-88.2l21.2,21.2C363.8,319.4,297.4,385.8,286.8,396.4L286.8,396.4z M477.8,205.4
				c-0.1,0.1-30.2,30.2-81.6,81.6L375,265.8c0.1-0.1,81.2-81.2,81.5-81.5c2.8-2.7,6.5-4.2,10.5-4.2c8.3,0,15,6.7,15,15
				C482,198.9,480.5,202.6,477.8,205.4L477.8,205.4z"/>
		</g>
	</g>
</g>
</svg>
