<?xml version="1.0" encoding="utf-8"?>
<!-- Generator: Adobe Illustrator 24.3.0, SVG Export Plug-In . SVG Version: 6.00 Build 0)  -->
<svg version="1.1" id="Layer_1" xmlns="http://www.w3.org/2000/svg" xmlns:xlink="http://www.w3.org/1999/xlink" x="0px" y="0px"
	 viewBox="0 0 30 30" style="enable-background:new 0 0 30 30;" xml:space="preserve">
<style type="text/css">
	.st0{fill:#FFFFFF;}
</style>
<path class="st0" d="M15,4c-4.2,0-9.6,1-9.6,1l0,0C3.5,5.4,2,7,2,9v6v0v6v0c0,2,1.4,3.6,3.4,3.9l0,0c0,0,5.4,1.1,9.6,1.1
	s9.6-1.1,9.6-1.1l0,0c1.9-0.3,3.4-2,3.4-3.9v0v-6v0V9c0-2-1.4-3.6-3.4-3.9l0,0C24.6,5,19.2,4,15,4z M12,10.4l8,4.6l-8,4.6V10.4z"/>
</svg>
