<?xml version="1.0" encoding="utf-8"?>
<!-- Generator: Adobe Illustrator 25.4.1, SVG Export Plug-In . SVG Version: 6.00 Build 0)  -->
<svg version="1.1" id="Layer_1" xmlns="http://www.w3.org/2000/svg" xmlns:xlink="http://www.w3.org/1999/xlink" x="0px" y="0px"
	 viewBox="0 0 130 130" style="enable-background:new 0 0 130 130;" xml:space="preserve">
<style type="text/css">
	.st0{fill:#152172;}
</style>
<path class="st0" d="M65,2.1c34.7,0,62.9,28.2,62.9,62.9S99.7,127.9,65,127.9S2.1,99.7,2.1,65S30.3,2.1,65,2.1 M65,0.1L65,0.1
	C29.3,0.1,0.1,29.3,0.1,65s29.2,64.9,64.9,64.9s64.9-29.2,64.9-64.9S100.7,0.1,65,0.1"/>
<g>
	<g>
		<polygon class="st0" points="49.4,48.2 55.9,48.2 55.9,39.1 46.8,39.1 46.8,48.2 		"/>
		<path class="st0" d="M38.4,90.8c11.2,0,17.5-5.7,17.5-16.2V57.3h-9.1V78c0,2.2-1.8,4.1-4.1,4.1H34c-2.2,0-4.1-1.8-4.1-4.1v-4.5
			h-9.1C21.3,84.1,27,90.8,38.4,90.8"/>
		<rect x="30" y="48.2" class="st0" width="16.8" height="9.1"/>
	</g>
	<g>
		<polygon class="st0" points="67.9,69.6 74.5,69.6 74.5,60.6 65.2,60.6 65.2,69.6 		"/>
		<rect x="83" y="51.6" class="st0" width="9.5" height="9"/>
		<path class="st0" d="M87.4,47.6h8.7c2.2,0,4,1.8,4,4V56h9c-0.4-10.4-6.1-17.1-17.4-17.1c-11.1,0-17.4,5.6-17.4,16.1v5.6h9v-9
			C83.4,49.4,85.2,47.6,87.4,47.6z"/>
		<path class="st0" d="M100.1,78.4c0,2.2-1.8,4-4,4h-8.7c-2.2,0-4-1.8-4-4v-8.7H77l0,0h-2.6V75c0,10.4,6.3,16.1,17.4,16.1
			c11.3,0,17-6.6,17.4-17.1h-9v4.4H100.1z"/>
		<polygon class="st0" points="85.8,78.7 92.5,78.7 92.5,69.7 83,69.7 83,78.7 		"/>
	</g>
</g>
</svg>
