<?xml version="1.0" encoding="utf-8"?>
<!-- Generator: Adobe Illustrator 25.4.1, SVG Export Plug-In . SVG Version: 6.00 Build 0)  -->
<svg version="1.1" id="Layer_1" xmlns="http://www.w3.org/2000/svg" xmlns:xlink="http://www.w3.org/1999/xlink" x="0px" y="0px"
	 viewBox="0 0 130 130" style="enable-background:new 0 0 130 130;" xml:space="preserve">
<style type="text/css">
	.st0{fill:#152172;}
</style>
<path class="st0" d="M65,2.2c34.7,0,62.9,28.2,62.9,62.9S99.7,128,65,128S2.1,99.8,2.1,65.1C2.1,30.5,30.3,2.2,65,2.2 M65,0.2
	L65,0.2C29.3,0.2,0.1,29.4,0.1,65.1S29.3,130,65,130s64.9-29.2,64.9-64.9S100.7,0.2,65,0.2"/>
<g>
	<polygon class="st0" points="52.4,47.5 59.2,47.5 59.2,38 49.7,38 49.7,47.5 	"/>
	<path class="st0" d="M40.9,92c11.7,0,18.3-5.9,18.3-17V57h-9.5v21.6c0,2.3-1.9,4.2-4.2,4.2h-9.1c-2.3,0-4.2-1.9-4.2-4.2V74h-9.5
		C23,85,29,92,40.9,92"/>
	<rect x="32.1" y="47.5" class="st0" width="17.6" height="9.5"/>
	<g>
		<path class="st0" d="M88.4,62.2v8.5c0,0,0,0,0,0.1v19.4c0,1.3-0.8,2.1-2.1,2.1H81c-1.3,0-2.1-0.8-2.1-2.1V57h9.6v5
			C88.4,62.1,88.4,62.2,88.4,62.2z"/>
		<path class="st0" d="M105,38h-1h-0.1h-23c-1.3,0-2.1,0.8-2.1,2.1v7.4h23.4l0,0h1.7l0,0h1.1c1.5,0,2.4-0.9,2.4-2.4v-4.8
			C107.4,38.9,106.5,38,105,38z"/>
		<path class="st0" d="M95.5,73.4h-3.9H75.5h-3.9c-1.5,0-2.4,0.9-2.4,2.4v4.8c0,1.5,0.9,2.4,2.4,2.4h1.1l0,0h1.7l0,0h1.1h16.1h1.1
			l0,0h1.7l0,0h1.1c1.5,0,2.4-0.9,2.4-2.4v-4.8C97.9,74.3,97,73.4,95.5,73.4z"/>
		<g>
			<polygon class="st0" points="100,56.9 100,66.5 78.9,66.5 78.9,57 98.2,56.9 			"/>
			<path class="st0" d="M101,66.5h-1.1v-9.6h1.1c1.5,0,2.4,0.9,2.4,2.4v4.8C103.4,65.6,102.5,66.5,101,66.5z"/>
		</g>
	</g>
</g>
</svg>
