<?xml version="1.0" encoding="utf-8"?>
<!-- Generator: Adobe Illustrator 25.4.1, SVG Export Plug-In . SVG Version: 6.00 Build 0)  -->
<svg version="1.1" id="Layer_1" xmlns="http://www.w3.org/2000/svg" xmlns:xlink="http://www.w3.org/1999/xlink" x="0px" y="0px"
	 viewBox="0 0 130 130" style="enable-background:new 0 0 130 130;" xml:space="preserve">
<style type="text/css">
	.st0{fill:#152172;}
</style>
<path class="st0" d="M65,2.4c34.7,0,62.9,28.2,62.9,62.9S99.7,128.2,65,128.2S2.1,100,2.1,65.3C2.1,30.6,30.3,2.4,65,2.4 M65,0.4
	L65,0.4C29.3,0.4,0.1,29.6,0.1,65.3s29.2,64.9,64.9,64.9s64.9-29.2,64.9-64.9S100.7,0.4,65,0.4"/>
<g>
	<polygon class="st0" points="47.3,47.8 54.1,47.8 54.1,38.3 44.5,38.3 44.5,47.8 	"/>
	<path class="st0" d="M35.7,92.3c11.7,0,18.3-5.9,18.3-17v-18h-9.5V79c0,2.3-1.9,4.2-4.2,4.2h-9.1c-2.3,0-4.2-1.9-4.2-4.2v-4.7h-9.5
		C17.8,85.3,23.9,92.3,35.7,92.3"/>
	<rect x="27" y="47.8" class="st0" width="17.6" height="9.5"/>
	<g>
		<rect x="67.2" y="82.8" class="st0" width="0.8" height="8.2"/>
		<polygon class="st0" points="85.5,70.1 92.3,70.1 92.3,60.5 82.8,60.5 82.8,70.1 		"/>
		<g>
			<path class="st0" d="M87.8,47.8h7.1c3.5,0,5.1,0.7,5.1,4.2v3.6c0,1.4,0.8,2.3,2.2,2.3h5.1c1.4,0,2.3-0.8,2.3-2.3v-3.9
				c0-4.2-1.2-7.6-3.6-9.9c-2.4-2.3-5.7-3.5-9.9-3.5h-9.5c-4.2,0-7.6,1.2-9.9,3.5c-2.4,2.4-3.5,5.7-3.5,9.9v8.8h9.5V52
				C82.7,48.4,84.4,47.8,87.8,47.8z"/>
			<path class="st0" d="M94.9,82.9C94.9,82.9,94.8,82.9,94.9,82.9h-7.1c-3.4,0-5-0.6-5.1-4.1v-8.7h-6.8h-2.7v8.8
				c-0.1,3.3-1.7,3.9-5.1,3.9h-0.2h-0.8v9.5h2.1h43.3v-9.4L94.9,82.9L94.9,82.9z"/>
			<path class="st0" d="M82.8,60.5h-0.1v9.1c0,0.2,0,0.3,0,0.5c0,0,0.1,0,0.1,0V60.5z"/>
		</g>
		<polygon class="st0" points="66.4,70.1 73.2,70.1 73.2,60.5 63.7,60.5 63.7,70.1 		"/>
	</g>
</g>
</svg>
