<?xml version="1.0" encoding="utf-8"?>
<!-- Generator: Adobe Illustrator 25.4.1, SVG Export Plug-In . SVG Version: 6.00 Build 0)  -->
<svg version="1.1" id="Layer_1" xmlns="http://www.w3.org/2000/svg" xmlns:xlink="http://www.w3.org/1999/xlink" x="0px" y="0px"
	 viewBox="0 0 130 130" style="enable-background:new 0 0 130 130;" xml:space="preserve">
<style type="text/css">
	.st0{fill:#152172;}
	.st1{fill:none;}
</style>
<path class="st0" d="M65,2.1c34.7,0,62.9,28.2,62.9,62.9c0,34.7-28.2,62.9-62.9,62.9C30.4,127.9,2.1,99.7,2.1,65
	C2.1,30.3,30.4,2.1,65,2.1 M65,0.1L65,0.1C29.3,0.1,0.1,29.3,0.1,65c0,35.7,29.2,64.9,64.9,64.9s64.9-29.2,64.9-64.9
	C129.9,29.3,100.7,0.1,65,0.1"/>
<rect x="0" y="0" class="st1" width="130" height="130"/>
<g>
	<rect x="47" y="36.1" class="st0" width="9.5" height="9.5"/>
	<path class="st0" d="M38.2,90.1c11.7,0,18.3-5.9,18.3-17v-18H47l0,21.6c0,2.3-1.9,4.2-4.2,4.2h-9.1c-2.3,0-4.2-1.9-4.2-4.2v-4.7
		h-9.5C20.3,83.1,26.4,90.1,38.2,90.1"/>
	<rect x="29.5" y="45.6" class="st0" width="17.6" height="9.5"/>
	<g>
		<rect x="66" y="36.1" class="st0" width="9.5" height="9.5"/>
		<path class="st0" d="M86.8,45.6h4.7c2.3,0,3.8,1.9,3.8,4.3v2.8h9.5c-0.7-10.7-7.5-16.2-17.9-16.6v0h-1.9v9.5L86.8,45.6L86.8,45.6z
			"/>
		<path class="st0" d="M95.3,58.3v3c0,2.3-1.5,4.2-3.8,4.2H66V75h21.9c10.5,0,16.4-6.1,16.9-16.7H95.3z"/>
		<rect x="75.5" y="50.9" class="st0" width="32.6" height="9.5"/>
		
			<rect x="91.2" y="64.3" transform="matrix(0.7071 -0.7071 0.7071 0.7071 -28.2406 91.1673)" class="st0" width="9.5" height="30.8"/>
	</g>
</g>
</svg>
