<?xml version="1.0" encoding="utf-8"?>
<!-- Generator: Adobe Illustrator 25.4.1, SVG Export Plug-In . SVG Version: 6.00 Build 0)  -->
<svg version="1.1" id="Layer_1" xmlns="http://www.w3.org/2000/svg" xmlns:xlink="http://www.w3.org/1999/xlink" x="0px" y="0px"
	 viewBox="0 0 130 130" style="enable-background:new 0 0 130 130;" xml:space="preserve">
<style type="text/css">
	.st0{fill:#152172;}
</style>
<path class="st0" d="M65,2.1c34.7,0,62.9,28.2,62.9,62.9c0,34.7-28.2,62.9-62.9,62.9C30.3,127.9,2.1,99.7,2.1,65
	C2.1,30.3,30.3,2.1,65,2.1 M65,0.1L65,0.1C29.3,0.1,0.1,29.3,0.1,65c0,35.7,29.2,64.9,64.9,64.9c35.7,0,64.9-29.2,64.9-64.9
	C129.9,29.3,100.7,0.1,65,0.1"/>
<g>
	<g>
		<path class="st0" d="M47.1,85.8c9,0,14.2-4.6,14.2-13.1V58.8h-7.4v16.7c0,1.8-1.5,3.3-3.3,3.3h-7c-1.8,0-3.3-1.5-3.3-3.3v-3.6
			h-7.4C33.3,80.4,37.9,85.8,47.1,85.8"/>
		<rect x="40.3" y="51.5" class="st0" width="13.6" height="7.4"/>
		<polygon class="st0" points="56,51.4 61.3,51.4 61.3,44.1 53.9,44.1 53.9,51.5 56,51.5 		"/>
	</g>
	<g>
		<polygon class="st0" points="81.6,44.3 86.8,44.3 86.8,37 79.5,37 79.5,44.3 81.6,44.3 		"/>
		<polygon class="st0" points="81.6,93 86.8,93 86.8,85.7 79.5,85.7 79.5,93 81.6,93 		"/>
		<g>
			<path class="st0" d="M75,66.8c1.4,0.5,2.9,0.9,4.5,1.3v-7.7c-2.7-0.9-2.7-2.3-2.7-2.9v-1.9c0-1.7,0.3-2.8,1-3.5
				c0.4-0.4,1-0.5,1.7-0.5v-7.3c-3.1,0-5.6,1-7.4,2.8c-1.9,1.9-2.8,4.4-2.8,7.6v2.6c0,2.5,0.6,4.5,1.6,6.1
				C72,65.1,73.3,66.2,75,66.8z"/>
			<path class="st0" d="M86.8,51.7c0.6,0,1.1,0.1,1.4,0.5c0.6,0.6,0.9,1.6,0.9,3.1v0.8c0,1.1,0.7,1.8,1.8,1.8h4
				c1.1,0,1.8-0.7,1.8-1.8v-1.4c0-3.2-0.9-5.8-2.8-7.6c-1.7-1.7-4.1-2.7-7.1-2.8V51.7z"/>
			<path class="st0" d="M95.9,67.4c-0.8-1.5-1.9-2.6-3.2-3.4c-1.2-0.7-2.6-1.3-4.1-1.7c-0.6-0.2-1.1-0.3-1.7-0.4v7.8
				c0.6,0.2,1.1,0.5,1.5,0.8c0.8,0.6,1.2,1.5,1.2,2.6v1.4c0,1.6-0.3,2.6-1,3.3c-0.4,0.4-1,0.5-1.8,0.5v7.3c3.1,0,5.6-1,7.4-2.8
				c1.8-1.9,2.8-4.4,2.8-7.6v-2.4C97.1,70.8,96.7,68.9,95.9,67.4z"/>
			<path class="st0" d="M79.5,78.3c-0.8,0-1.3-0.1-1.7-0.5c-0.6-0.6-1-1.6-1-3.1v-1.1c0-1.1-0.7-1.8-1.8-1.8h-4
				c-1.1,0-1.8,0.7-1.8,1.8v1.6c0,3.2,1,5.8,2.8,7.6c1.8,1.8,4.3,2.7,7.4,2.8V78.3z"/>
		</g>
	</g>
</g>
</svg>
